<mxfile host="app.diagrams.net" agent="Mozilla/5.0 (Macintosh; Intel Mac OS X 10_15_7) AppleWebKit/537.36 (KHTML, like Gecko) Chrome/133.0.0.0 Safari/537.36" version="26.0.16">
  <diagram name="Страница — 1" id="7s_W0JdHJNEJIRjCicE_">
    <mxGraphModel dx="1553" dy="918" grid="1" gridSize="10" guides="1" tooltips="1" connect="1" arrows="1" fold="1" page="1" pageScale="1" pageWidth="2339" pageHeight="3300" math="0" shadow="0">
      <root>
        <mxCell id="0" />
        <mxCell id="1" parent="0" />
        <mxCell id="kAe2t5Nj_32575Pfu-4r-2" value="&lt;h4 data-pm-slice=&quot;1 1 []&quot;&gt;Оформление заказа пиццы&lt;/h4&gt;" style="rounded=0;whiteSpace=wrap;html=1;fontSize=13;" vertex="1" parent="1">
          <mxGeometry x="280" y="210" width="390" height="170" as="geometry" />
        </mxCell>
        <mxCell id="kAe2t5Nj_32575Pfu-4r-3" value="" style="endArrow=classic;html=1;rounded=0;fontSize=13;" edge="1" parent="1">
          <mxGeometry width="50" height="50" relative="1" as="geometry">
            <mxPoint x="80" y="240" as="sourcePoint" />
            <mxPoint x="280" y="240" as="targetPoint" />
          </mxGeometry>
        </mxCell>
        <mxCell id="kAe2t5Nj_32575Pfu-4r-5" value="&lt;p data-pm-slice=&quot;1 1 [&amp;quot;list&amp;quot;,{&amp;quot;spread&amp;quot;:false,&amp;quot;start&amp;quot;:112,&amp;quot;end&amp;quot;:192},&amp;quot;regular_list_item&amp;quot;,{&amp;quot;start&amp;quot;:112,&amp;quot;end&amp;quot;:136}]&quot;&gt;Меню ресторана&lt;/p&gt;" style="edgeLabel;html=1;align=center;verticalAlign=middle;resizable=0;points=[];fontSize=13;" vertex="1" connectable="0" parent="kAe2t5Nj_32575Pfu-4r-3">
          <mxGeometry x="0.3182" y="-1" relative="1" as="geometry">
            <mxPoint as="offset" />
          </mxGeometry>
        </mxCell>
        <mxCell id="kAe2t5Nj_32575Pfu-4r-6" value="" style="endArrow=classic;html=1;rounded=0;fontSize=13;" edge="1" parent="1">
          <mxGeometry width="50" height="50" relative="1" as="geometry">
            <mxPoint x="80" y="290" as="sourcePoint" />
            <mxPoint x="280" y="290" as="targetPoint" />
          </mxGeometry>
        </mxCell>
        <mxCell id="kAe2t5Nj_32575Pfu-4r-7" value="&lt;p data-pm-slice=&quot;1 1 [&amp;quot;list&amp;quot;,{&amp;quot;spread&amp;quot;:false,&amp;quot;start&amp;quot;:112,&amp;quot;end&amp;quot;:192},&amp;quot;regular_list_item&amp;quot;,{&amp;quot;start&amp;quot;:137,&amp;quot;end&amp;quot;:159}]&quot;&gt;Данные о клиенте&lt;/p&gt;" style="edgeLabel;html=1;align=center;verticalAlign=middle;resizable=0;points=[];fontSize=13;" vertex="1" connectable="0" parent="kAe2t5Nj_32575Pfu-4r-6">
          <mxGeometry x="0.3182" y="-1" relative="1" as="geometry">
            <mxPoint as="offset" />
          </mxGeometry>
        </mxCell>
        <mxCell id="kAe2t5Nj_32575Pfu-4r-10" value="" style="endArrow=classic;html=1;rounded=0;" edge="1" parent="1">
          <mxGeometry width="50" height="50" relative="1" as="geometry">
            <mxPoint x="400" y="510" as="sourcePoint" />
            <mxPoint x="400" y="380" as="targetPoint" />
          </mxGeometry>
        </mxCell>
        <mxCell id="kAe2t5Nj_32575Pfu-4r-12" value="&lt;p data-pm-slice=&quot;1 1 [&amp;quot;list&amp;quot;,{&amp;quot;spread&amp;quot;:false,&amp;quot;start&amp;quot;:299,&amp;quot;end&amp;quot;:344},&amp;quot;regular_list_item&amp;quot;,{&amp;quot;start&amp;quot;:316,&amp;quot;end&amp;quot;:330}]&quot;&gt;Сервер&lt;/p&gt;" style="edgeLabel;html=1;align=center;verticalAlign=middle;resizable=0;points=[];fontSize=13;" vertex="1" connectable="0" parent="kAe2t5Nj_32575Pfu-4r-10">
          <mxGeometry x="0.2109" y="5" relative="1" as="geometry">
            <mxPoint as="offset" />
          </mxGeometry>
        </mxCell>
        <mxCell id="kAe2t5Nj_32575Pfu-4r-16" value="" style="endArrow=classic;html=1;rounded=0;fontSize=13;" edge="1" parent="1">
          <mxGeometry width="50" height="50" relative="1" as="geometry">
            <mxPoint x="670" y="240" as="sourcePoint" />
            <mxPoint x="870" y="240" as="targetPoint" />
          </mxGeometry>
        </mxCell>
        <mxCell id="kAe2t5Nj_32575Pfu-4r-17" value="&lt;p data-pm-slice=&quot;1 1 [&amp;quot;list&amp;quot;,{&amp;quot;spread&amp;quot;:false,&amp;quot;start&amp;quot;:206,&amp;quot;end&amp;quot;:282},&amp;quot;regular_list_item&amp;quot;,{&amp;quot;start&amp;quot;:206,&amp;quot;end&amp;quot;:235}]&quot;&gt;Информация о заказе&lt;/p&gt;" style="edgeLabel;html=1;align=center;verticalAlign=middle;resizable=0;points=[];fontSize=13;" vertex="1" connectable="0" parent="kAe2t5Nj_32575Pfu-4r-16">
          <mxGeometry x="0.3182" y="-1" relative="1" as="geometry">
            <mxPoint as="offset" />
          </mxGeometry>
        </mxCell>
        <mxCell id="kAe2t5Nj_32575Pfu-4r-18" value="" style="endArrow=classic;html=1;rounded=0;fontSize=13;" edge="1" parent="1">
          <mxGeometry width="50" height="50" relative="1" as="geometry">
            <mxPoint x="670" y="300" as="sourcePoint" />
            <mxPoint x="870" y="300" as="targetPoint" />
          </mxGeometry>
        </mxCell>
        <mxCell id="kAe2t5Nj_32575Pfu-4r-19" value="&lt;p data-pm-slice=&quot;1 1 [&amp;quot;list&amp;quot;,{&amp;quot;spread&amp;quot;:false,&amp;quot;start&amp;quot;:206,&amp;quot;end&amp;quot;:282},&amp;quot;regular_list_item&amp;quot;,{&amp;quot;start&amp;quot;:236,&amp;quot;end&amp;quot;:266}]&quot;&gt;Заказ&lt;/p&gt;" style="edgeLabel;html=1;align=center;verticalAlign=middle;resizable=0;points=[];fontSize=13;" vertex="1" connectable="0" parent="kAe2t5Nj_32575Pfu-4r-18">
          <mxGeometry x="0.3182" y="-1" relative="1" as="geometry">
            <mxPoint as="offset" />
          </mxGeometry>
        </mxCell>
        <mxCell id="kAe2t5Nj_32575Pfu-4r-26" value="0" style="text;html=1;align=center;verticalAlign=middle;whiteSpace=wrap;rounded=0;fontSize=13;" vertex="1" parent="1">
          <mxGeometry x="620" y="351" width="60" height="30" as="geometry" />
        </mxCell>
        <mxCell id="kAe2t5Nj_32575Pfu-4r-45" style="edgeStyle=orthogonalEdgeStyle;rounded=0;orthogonalLoop=1;jettySize=auto;html=1;entryX=0.5;entryY=0;entryDx=0;entryDy=0;fontSize=14;" edge="1" parent="1" source="kAe2t5Nj_32575Pfu-4r-27" target="kAe2t5Nj_32575Pfu-4r-39">
          <mxGeometry relative="1" as="geometry" />
        </mxCell>
        <mxCell id="kAe2t5Nj_32575Pfu-4r-46" value="&lt;p data-pm-slice=&quot;1 1 [&amp;quot;list&amp;quot;,{&amp;quot;spread&amp;quot;:false,&amp;quot;start&amp;quot;:561,&amp;quot;end&amp;quot;:787},&amp;quot;regular_list_item&amp;quot;,{&amp;quot;start&amp;quot;:617,&amp;quot;end&amp;quot;:640}]&quot;&gt;Заказ&lt;/p&gt;" style="edgeLabel;html=1;align=center;verticalAlign=middle;resizable=0;points=[];fontSize=14;" vertex="1" connectable="0" parent="kAe2t5Nj_32575Pfu-4r-45">
          <mxGeometry x="-0.4612" y="1" relative="1" as="geometry">
            <mxPoint x="14" y="1" as="offset" />
          </mxGeometry>
        </mxCell>
        <mxCell id="kAe2t5Nj_32575Pfu-4r-27" value="&lt;h4 data-pm-slice=&quot;1 1 []&quot;&gt;Прием и обработка заказа&lt;/h4&gt;" style="rounded=0;whiteSpace=wrap;html=1;fontSize=14;" vertex="1" parent="1">
          <mxGeometry x="200" y="670" width="190" height="90" as="geometry" />
        </mxCell>
        <mxCell id="kAe2t5Nj_32575Pfu-4r-28" value="" style="endArrow=classic;html=1;rounded=0;fontSize=14;" edge="1" parent="1">
          <mxGeometry width="50" height="50" relative="1" as="geometry">
            <mxPoint x="20" y="714" as="sourcePoint" />
            <mxPoint x="200" y="714.4100000000001" as="targetPoint" />
          </mxGeometry>
        </mxCell>
        <mxCell id="kAe2t5Nj_32575Pfu-4r-29" value="Заявка" style="edgeLabel;html=1;align=center;verticalAlign=middle;resizable=0;points=[];fontSize=14;" vertex="1" connectable="0" parent="kAe2t5Nj_32575Pfu-4r-28">
          <mxGeometry x="0.3182" y="-1" relative="1" as="geometry">
            <mxPoint as="offset" />
          </mxGeometry>
        </mxCell>
        <mxCell id="kAe2t5Nj_32575Pfu-4r-34" value="" style="endArrow=classic;html=1;rounded=0;fontSize=13;" edge="1" parent="1">
          <mxGeometry width="50" height="50" relative="1" as="geometry">
            <mxPoint x="670" y="351" as="sourcePoint" />
            <mxPoint x="870" y="351" as="targetPoint" />
          </mxGeometry>
        </mxCell>
        <mxCell id="kAe2t5Nj_32575Pfu-4r-35" value="&lt;p data-pm-slice=&quot;1 1 [&amp;quot;list&amp;quot;,{&amp;quot;spread&amp;quot;:false,&amp;quot;start&amp;quot;:206,&amp;quot;end&amp;quot;:282},&amp;quot;regular_list_item&amp;quot;,{&amp;quot;start&amp;quot;:267,&amp;quot;end&amp;quot;:282}]&quot;&gt;Чек за услуги&lt;/p&gt;" style="edgeLabel;html=1;align=center;verticalAlign=middle;resizable=0;points=[];fontSize=13;" vertex="1" connectable="0" parent="kAe2t5Nj_32575Pfu-4r-34">
          <mxGeometry x="0.3182" y="-1" relative="1" as="geometry">
            <mxPoint as="offset" />
          </mxGeometry>
        </mxCell>
        <mxCell id="kAe2t5Nj_32575Pfu-4r-36" value="" style="endArrow=classic;html=1;rounded=0;" edge="1" parent="1">
          <mxGeometry width="50" height="50" relative="1" as="geometry">
            <mxPoint x="590" y="510" as="sourcePoint" />
            <mxPoint x="590" y="380" as="targetPoint" />
          </mxGeometry>
        </mxCell>
        <mxCell id="kAe2t5Nj_32575Pfu-4r-37" value="&lt;p data-pm-slice=&quot;1 1 [&amp;quot;list&amp;quot;,{&amp;quot;spread&amp;quot;:false,&amp;quot;start&amp;quot;:299,&amp;quot;end&amp;quot;:344},&amp;quot;regular_list_item&amp;quot;,{&amp;quot;start&amp;quot;:316,&amp;quot;end&amp;quot;:330}]&quot;&gt;База данных&lt;/p&gt;" style="edgeLabel;html=1;align=center;verticalAlign=middle;resizable=0;points=[];fontSize=13;" vertex="1" connectable="0" parent="kAe2t5Nj_32575Pfu-4r-36">
          <mxGeometry x="0.2109" y="5" relative="1" as="geometry">
            <mxPoint as="offset" />
          </mxGeometry>
        </mxCell>
        <mxCell id="kAe2t5Nj_32575Pfu-4r-47" style="edgeStyle=orthogonalEdgeStyle;rounded=0;orthogonalLoop=1;jettySize=auto;html=1;exitX=1;exitY=0.5;exitDx=0;exitDy=0;entryX=0.5;entryY=0;entryDx=0;entryDy=0;fontSize=14;" edge="1" parent="1" source="kAe2t5Nj_32575Pfu-4r-39" target="kAe2t5Nj_32575Pfu-4r-40">
          <mxGeometry relative="1" as="geometry" />
        </mxCell>
        <mxCell id="kAe2t5Nj_32575Pfu-4r-48" value="Готовый продукт" style="edgeLabel;html=1;align=center;verticalAlign=middle;resizable=0;points=[];fontSize=14;" vertex="1" connectable="0" parent="kAe2t5Nj_32575Pfu-4r-47">
          <mxGeometry x="-0.1196" relative="1" as="geometry">
            <mxPoint as="offset" />
          </mxGeometry>
        </mxCell>
        <mxCell id="kAe2t5Nj_32575Pfu-4r-39" value="&lt;h4 data-pm-slice=&quot;1 1 []&quot;&gt;Готовка и упаковка заказа&lt;/h4&gt;" style="rounded=0;whiteSpace=wrap;html=1;fontSize=14;" vertex="1" parent="1">
          <mxGeometry x="450" y="800" width="190" height="90" as="geometry" />
        </mxCell>
        <mxCell id="kAe2t5Nj_32575Pfu-4r-71" style="edgeStyle=orthogonalEdgeStyle;rounded=0;orthogonalLoop=1;jettySize=auto;html=1;fontSize=14;" edge="1" parent="1" source="kAe2t5Nj_32575Pfu-4r-40">
          <mxGeometry relative="1" as="geometry">
            <mxPoint x="990" y="1030" as="targetPoint" />
          </mxGeometry>
        </mxCell>
        <mxCell id="kAe2t5Nj_32575Pfu-4r-72" value="Оповещение" style="edgeLabel;html=1;align=center;verticalAlign=middle;resizable=0;points=[];fontSize=14;" vertex="1" connectable="0" parent="kAe2t5Nj_32575Pfu-4r-71">
          <mxGeometry x="-0.1212" y="-2" relative="1" as="geometry">
            <mxPoint as="offset" />
          </mxGeometry>
        </mxCell>
        <mxCell id="kAe2t5Nj_32575Pfu-4r-40" value="&lt;h4 data-pm-slice=&quot;1 1 []&quot;&gt;Уведомление клиента о готовности заказа&lt;/h4&gt;" style="rounded=0;whiteSpace=wrap;html=1;fontSize=14;" vertex="1" parent="1">
          <mxGeometry x="670" y="920" width="190" height="90" as="geometry" />
        </mxCell>
        <mxCell id="kAe2t5Nj_32575Pfu-4r-41" value="&lt;h4 data-pm-slice=&quot;1 1 []&quot;&gt;Доставка заказа&lt;/h4&gt;" style="rounded=0;whiteSpace=wrap;html=1;fontSize=14;" vertex="1" parent="1">
          <mxGeometry x="900" y="1030" width="190" height="90" as="geometry" />
        </mxCell>
        <mxCell id="kAe2t5Nj_32575Pfu-4r-43" value="" style="endArrow=classic;html=1;rounded=0;fontSize=14;" edge="1" parent="1">
          <mxGeometry width="50" height="50" relative="1" as="geometry">
            <mxPoint x="278.82" y="550" as="sourcePoint" />
            <mxPoint x="278.82" y="670" as="targetPoint" />
          </mxGeometry>
        </mxCell>
        <mxCell id="kAe2t5Nj_32575Pfu-4r-44" value="&lt;p data-pm-slice=&quot;1 1 [&amp;quot;list&amp;quot;,{&amp;quot;spread&amp;quot;:false,&amp;quot;start&amp;quot;:299,&amp;quot;end&amp;quot;:344},&amp;quot;regular_list_item&amp;quot;,{&amp;quot;start&amp;quot;:316,&amp;quot;end&amp;quot;:330}]&quot;&gt;База данных&lt;/p&gt;" style="edgeLabel;html=1;align=center;verticalAlign=middle;resizable=0;points=[];fontSize=14;" vertex="1" connectable="0" parent="kAe2t5Nj_32575Pfu-4r-43">
          <mxGeometry x="0.2109" y="5" relative="1" as="geometry">
            <mxPoint x="-4" y="-63" as="offset" />
          </mxGeometry>
        </mxCell>
        <mxCell id="kAe2t5Nj_32575Pfu-4r-49" value="" style="endArrow=classic;html=1;rounded=0;fontSize=14;" edge="1" parent="1">
          <mxGeometry width="50" height="50" relative="1" as="geometry">
            <mxPoint x="240" y="880" as="sourcePoint" />
            <mxPoint x="240" y="760" as="targetPoint" />
          </mxGeometry>
        </mxCell>
        <mxCell id="kAe2t5Nj_32575Pfu-4r-50" value="&lt;p data-pm-slice=&quot;1 1 [&amp;quot;list&amp;quot;,{&amp;quot;spread&amp;quot;:false,&amp;quot;start&amp;quot;:750,&amp;quot;end&amp;quot;:795},&amp;quot;regular_list_item&amp;quot;,{&amp;quot;start&amp;quot;:750,&amp;quot;end&amp;quot;:769}]&quot;&gt;Сервер&lt;/p&gt;" style="edgeLabel;html=1;align=center;verticalAlign=middle;resizable=0;points=[];fontSize=14;" vertex="1" connectable="0" parent="kAe2t5Nj_32575Pfu-4r-49">
          <mxGeometry x="-0.4824" relative="1" as="geometry">
            <mxPoint as="offset" />
          </mxGeometry>
        </mxCell>
        <mxCell id="kAe2t5Nj_32575Pfu-4r-51" value="" style="endArrow=classic;html=1;rounded=0;fontSize=14;" edge="1" parent="1">
          <mxGeometry width="50" height="50" relative="1" as="geometry">
            <mxPoint x="350" y="880" as="sourcePoint" />
            <mxPoint x="350" y="760" as="targetPoint" />
          </mxGeometry>
        </mxCell>
        <mxCell id="kAe2t5Nj_32575Pfu-4r-52" value="&lt;p data-pm-slice=&quot;1 1 [&amp;quot;list&amp;quot;,{&amp;quot;spread&amp;quot;:false,&amp;quot;start&amp;quot;:750,&amp;quot;end&amp;quot;:795},&amp;quot;regular_list_item&amp;quot;,{&amp;quot;start&amp;quot;:750,&amp;quot;end&amp;quot;:769}]&quot;&gt;Интерфейс админа&lt;/p&gt;" style="edgeLabel;html=1;align=center;verticalAlign=middle;resizable=0;points=[];fontSize=14;" vertex="1" connectable="0" parent="kAe2t5Nj_32575Pfu-4r-51">
          <mxGeometry x="-0.4824" relative="1" as="geometry">
            <mxPoint as="offset" />
          </mxGeometry>
        </mxCell>
        <mxCell id="kAe2t5Nj_32575Pfu-4r-57" value="" style="endArrow=classic;html=1;rounded=0;fontSize=14;" edge="1" parent="1">
          <mxGeometry width="50" height="50" relative="1" as="geometry">
            <mxPoint x="520" y="1010" as="sourcePoint" />
            <mxPoint x="520" y="890" as="targetPoint" />
          </mxGeometry>
        </mxCell>
        <mxCell id="kAe2t5Nj_32575Pfu-4r-58" value="&lt;p data-pm-slice=&quot;1 1 [&amp;quot;list&amp;quot;,{&amp;quot;spread&amp;quot;:false,&amp;quot;start&amp;quot;:1030,&amp;quot;end&amp;quot;:1070},&amp;quot;regular_list_item&amp;quot;,{&amp;quot;start&amp;quot;:1030,&amp;quot;end&amp;quot;:1060}]&quot;&gt;База данных&lt;/p&gt;" style="edgeLabel;html=1;align=center;verticalAlign=middle;resizable=0;points=[];fontSize=14;" vertex="1" connectable="0" parent="kAe2t5Nj_32575Pfu-4r-57">
          <mxGeometry x="-0.4824" relative="1" as="geometry">
            <mxPoint as="offset" />
          </mxGeometry>
        </mxCell>
        <mxCell id="kAe2t5Nj_32575Pfu-4r-61" value="" style="endArrow=classic;html=1;rounded=0;fontSize=13;" edge="1" parent="1">
          <mxGeometry width="50" height="50" relative="1" as="geometry">
            <mxPoint x="80" y="340" as="sourcePoint" />
            <mxPoint x="280" y="340" as="targetPoint" />
          </mxGeometry>
        </mxCell>
        <mxCell id="kAe2t5Nj_32575Pfu-4r-62" value="&lt;p data-pm-slice=&quot;1 1 [&amp;quot;list&amp;quot;,{&amp;quot;spread&amp;quot;:false,&amp;quot;start&amp;quot;:112,&amp;quot;end&amp;quot;:192},&amp;quot;regular_list_item&amp;quot;,{&amp;quot;start&amp;quot;:112,&amp;quot;end&amp;quot;:136}]&quot;&gt;Наличие блюд&lt;/p&gt;" style="edgeLabel;html=1;align=center;verticalAlign=middle;resizable=0;points=[];fontSize=13;" vertex="1" connectable="0" parent="kAe2t5Nj_32575Pfu-4r-61">
          <mxGeometry x="0.3182" y="-1" relative="1" as="geometry">
            <mxPoint as="offset" />
          </mxGeometry>
        </mxCell>
        <mxCell id="kAe2t5Nj_32575Pfu-4r-63" value="" style="endArrow=classic;html=1;rounded=0;" edge="1" parent="1">
          <mxGeometry width="50" height="50" relative="1" as="geometry">
            <mxPoint x="490" y="50" as="sourcePoint" />
            <mxPoint x="490" y="210" as="targetPoint" />
          </mxGeometry>
        </mxCell>
        <mxCell id="kAe2t5Nj_32575Pfu-4r-64" value="&lt;p data-pm-slice=&quot;1 1 [&amp;quot;list&amp;quot;,{&amp;quot;spread&amp;quot;:false,&amp;quot;start&amp;quot;:299,&amp;quot;end&amp;quot;:344},&amp;quot;regular_list_item&amp;quot;,{&amp;quot;start&amp;quot;:316,&amp;quot;end&amp;quot;:330}]&quot;&gt;Публичная оферта&lt;/p&gt;" style="edgeLabel;html=1;align=center;verticalAlign=middle;resizable=0;points=[];fontSize=13;" vertex="1" connectable="0" parent="kAe2t5Nj_32575Pfu-4r-63">
          <mxGeometry x="0.2109" y="5" relative="1" as="geometry">
            <mxPoint as="offset" />
          </mxGeometry>
        </mxCell>
        <mxCell id="kAe2t5Nj_32575Pfu-4r-65" value="" style="endArrow=classic;html=1;rounded=0;fontSize=14;" edge="1" parent="1">
          <mxGeometry width="50" height="50" relative="1" as="geometry">
            <mxPoint x="730" y="1130" as="sourcePoint" />
            <mxPoint x="730" y="1010" as="targetPoint" />
          </mxGeometry>
        </mxCell>
        <mxCell id="kAe2t5Nj_32575Pfu-4r-66" value="&lt;p data-pm-slice=&quot;1 1 [&amp;quot;list&amp;quot;,{&amp;quot;spread&amp;quot;:false,&amp;quot;start&amp;quot;:1030,&amp;quot;end&amp;quot;:1070},&amp;quot;regular_list_item&amp;quot;,{&amp;quot;start&amp;quot;:1030,&amp;quot;end&amp;quot;:1060}]&quot;&gt;База данных&lt;/p&gt;" style="edgeLabel;html=1;align=center;verticalAlign=middle;resizable=0;points=[];fontSize=14;" vertex="1" connectable="0" parent="kAe2t5Nj_32575Pfu-4r-65">
          <mxGeometry x="-0.4824" relative="1" as="geometry">
            <mxPoint as="offset" />
          </mxGeometry>
        </mxCell>
        <mxCell id="kAe2t5Nj_32575Pfu-4r-69" value="" style="endArrow=classic;html=1;rounded=0;fontSize=14;" edge="1" parent="1">
          <mxGeometry width="50" height="50" relative="1" as="geometry">
            <mxPoint x="960" y="1240" as="sourcePoint" />
            <mxPoint x="960" y="1120" as="targetPoint" />
          </mxGeometry>
        </mxCell>
        <mxCell id="kAe2t5Nj_32575Pfu-4r-70" value="&lt;p data-pm-slice=&quot;1 1 [&amp;quot;list&amp;quot;,{&amp;quot;spread&amp;quot;:false,&amp;quot;start&amp;quot;:1030,&amp;quot;end&amp;quot;:1070},&amp;quot;regular_list_item&amp;quot;,{&amp;quot;start&amp;quot;:1030,&amp;quot;end&amp;quot;:1060}]&quot;&gt;Персонал&lt;/p&gt;" style="edgeLabel;html=1;align=center;verticalAlign=middle;resizable=0;points=[];fontSize=14;" vertex="1" connectable="0" parent="kAe2t5Nj_32575Pfu-4r-69">
          <mxGeometry x="-0.4824" relative="1" as="geometry">
            <mxPoint as="offset" />
          </mxGeometry>
        </mxCell>
        <mxCell id="kAe2t5Nj_32575Pfu-4r-73" value="" style="endArrow=classic;html=1;rounded=0;fontSize=14;" edge="1" parent="1">
          <mxGeometry width="50" height="50" relative="1" as="geometry">
            <mxPoint x="1090" y="1080" as="sourcePoint" />
            <mxPoint x="1280" y="1080" as="targetPoint" />
          </mxGeometry>
        </mxCell>
        <mxCell id="kAe2t5Nj_32575Pfu-4r-74" value="Доставленный продукт" style="edgeLabel;html=1;align=center;verticalAlign=middle;resizable=0;points=[];fontSize=14;" vertex="1" connectable="0" parent="kAe2t5Nj_32575Pfu-4r-73">
          <mxGeometry x="0.2322" y="-3" relative="1" as="geometry">
            <mxPoint x="-18" y="-3" as="offset" />
          </mxGeometry>
        </mxCell>
        <mxCell id="kAe2t5Nj_32575Pfu-4r-75" value="1" style="text;html=1;align=center;verticalAlign=middle;whiteSpace=wrap;rounded=0;fontSize=14;" vertex="1" parent="1">
          <mxGeometry x="340" y="731" width="60" height="30" as="geometry" />
        </mxCell>
        <mxCell id="kAe2t5Nj_32575Pfu-4r-76" value="2" style="text;html=1;align=center;verticalAlign=middle;whiteSpace=wrap;rounded=0;fontSize=14;" vertex="1" parent="1">
          <mxGeometry x="590" y="860" width="60" height="30" as="geometry" />
        </mxCell>
        <mxCell id="kAe2t5Nj_32575Pfu-4r-77" value="3" style="text;html=1;align=center;verticalAlign=middle;whiteSpace=wrap;rounded=0;fontSize=14;" vertex="1" parent="1">
          <mxGeometry x="810" y="980" width="60" height="30" as="geometry" />
        </mxCell>
        <mxCell id="kAe2t5Nj_32575Pfu-4r-78" value="4" style="text;html=1;align=center;verticalAlign=middle;whiteSpace=wrap;rounded=0;fontSize=14;" vertex="1" parent="1">
          <mxGeometry x="1040" y="1100" width="60" height="30" as="geometry" />
        </mxCell>
        <mxCell id="kAe2t5Nj_32575Pfu-4r-79" value="А2" style="text;html=1;align=center;verticalAlign=middle;whiteSpace=wrap;rounded=0;fontSize=14;" vertex="1" parent="1">
          <mxGeometry x="590" y="910" width="60" height="30" as="geometry" />
        </mxCell>
        <mxCell id="kAe2t5Nj_32575Pfu-4r-81" value="&lt;h4 data-pm-slice=&quot;1 1 []&quot;&gt;Проверка наличия ингредиентов&lt;/h4&gt;" style="rounded=0;whiteSpace=wrap;html=1;fontSize=14;" vertex="1" parent="1">
          <mxGeometry x="220" y="1330" width="190" height="90" as="geometry" />
        </mxCell>
        <mxCell id="kAe2t5Nj_32575Pfu-4r-84" value="" style="endArrow=classic;html=1;rounded=0;fontSize=14;" edge="1" parent="1">
          <mxGeometry width="50" height="50" relative="1" as="geometry">
            <mxPoint x="40" y="1360" as="sourcePoint" />
            <mxPoint x="220" y="1360.41" as="targetPoint" />
          </mxGeometry>
        </mxCell>
        <mxCell id="kAe2t5Nj_32575Pfu-4r-85" value="Заявка" style="edgeLabel;html=1;align=center;verticalAlign=middle;resizable=0;points=[];fontSize=14;" vertex="1" connectable="0" parent="kAe2t5Nj_32575Pfu-4r-84">
          <mxGeometry x="0.3182" y="-1" relative="1" as="geometry">
            <mxPoint y="-11" as="offset" />
          </mxGeometry>
        </mxCell>
        <mxCell id="kAe2t5Nj_32575Pfu-4r-88" value="&lt;h4 data-pm-slice=&quot;1 1 []&quot;&gt;Готовка блюд&lt;/h4&gt;" style="rounded=0;whiteSpace=wrap;html=1;fontSize=14;" vertex="1" parent="1">
          <mxGeometry x="480" y="1440" width="190" height="90" as="geometry" />
        </mxCell>
        <mxCell id="kAe2t5Nj_32575Pfu-4r-102" style="edgeStyle=orthogonalEdgeStyle;rounded=0;orthogonalLoop=1;jettySize=auto;html=1;exitX=1;exitY=0.5;exitDx=0;exitDy=0;fontSize=14;" edge="1" parent="1" source="kAe2t5Nj_32575Pfu-4r-89">
          <mxGeometry relative="1" as="geometry">
            <mxPoint x="1070" y="1605.4117647058824" as="targetPoint" />
          </mxGeometry>
        </mxCell>
        <mxCell id="kAe2t5Nj_32575Pfu-4r-103" value="Готовый продукт" style="edgeLabel;html=1;align=center;verticalAlign=middle;resizable=0;points=[];fontSize=14;" vertex="1" connectable="0" parent="kAe2t5Nj_32575Pfu-4r-102">
          <mxGeometry x="0.0176" relative="1" as="geometry">
            <mxPoint x="10" y="-16" as="offset" />
          </mxGeometry>
        </mxCell>
        <mxCell id="kAe2t5Nj_32575Pfu-4r-89" value="&lt;h4 data-pm-slice=&quot;1 1 []&quot;&gt;Упаковка и комплектация заказа&lt;/h4&gt;" style="rounded=0;whiteSpace=wrap;html=1;fontSize=14;" vertex="1" parent="1">
          <mxGeometry x="760" y="1560" width="190" height="90" as="geometry" />
        </mxCell>
        <mxCell id="kAe2t5Nj_32575Pfu-4r-90" value="Заказ" style="edgeStyle=orthogonalEdgeStyle;rounded=0;orthogonalLoop=1;jettySize=auto;html=1;entryX=0.409;entryY=-0.005;entryDx=0;entryDy=0;entryPerimeter=0;fontSize=14;" edge="1" parent="1" source="kAe2t5Nj_32575Pfu-4r-81" target="kAe2t5Nj_32575Pfu-4r-88">
          <mxGeometry relative="1" as="geometry" />
        </mxCell>
        <mxCell id="kAe2t5Nj_32575Pfu-4r-92" style="edgeStyle=orthogonalEdgeStyle;rounded=0;orthogonalLoop=1;jettySize=auto;html=1;entryX=0.328;entryY=0.021;entryDx=0;entryDy=0;entryPerimeter=0;fontSize=14;" edge="1" parent="1" source="kAe2t5Nj_32575Pfu-4r-88" target="kAe2t5Nj_32575Pfu-4r-89">
          <mxGeometry relative="1" as="geometry" />
        </mxCell>
        <mxCell id="kAe2t5Nj_32575Pfu-4r-107" value="Блюда" style="edgeLabel;html=1;align=center;verticalAlign=middle;resizable=0;points=[];fontSize=14;" vertex="1" connectable="0" parent="kAe2t5Nj_32575Pfu-4r-92">
          <mxGeometry x="-0.2188" y="2" relative="1" as="geometry">
            <mxPoint x="-1" as="offset" />
          </mxGeometry>
        </mxCell>
        <mxCell id="kAe2t5Nj_32575Pfu-4r-94" value="" style="endArrow=classic;html=1;rounded=0;fontSize=14;" edge="1" parent="1">
          <mxGeometry width="50" height="50" relative="1" as="geometry">
            <mxPoint x="350" y="1540" as="sourcePoint" />
            <mxPoint x="350" y="1420" as="targetPoint" />
          </mxGeometry>
        </mxCell>
        <mxCell id="kAe2t5Nj_32575Pfu-4r-95" value="&lt;p data-pm-slice=&quot;1 1 [&amp;quot;list&amp;quot;,{&amp;quot;spread&amp;quot;:false,&amp;quot;start&amp;quot;:1030,&amp;quot;end&amp;quot;:1070},&amp;quot;regular_list_item&amp;quot;,{&amp;quot;start&amp;quot;:1030,&amp;quot;end&amp;quot;:1060}]&quot;&gt;База данных&lt;/p&gt;" style="edgeLabel;html=1;align=center;verticalAlign=middle;resizable=0;points=[];fontSize=14;" vertex="1" connectable="0" parent="kAe2t5Nj_32575Pfu-4r-94">
          <mxGeometry x="-0.4824" relative="1" as="geometry">
            <mxPoint y="31" as="offset" />
          </mxGeometry>
        </mxCell>
        <mxCell id="kAe2t5Nj_32575Pfu-4r-96" value="" style="endArrow=classic;html=1;rounded=0;fontSize=14;" edge="1" parent="1">
          <mxGeometry width="50" height="50" relative="1" as="geometry">
            <mxPoint x="250" y="1540" as="sourcePoint" />
            <mxPoint x="250" y="1420" as="targetPoint" />
          </mxGeometry>
        </mxCell>
        <mxCell id="kAe2t5Nj_32575Pfu-4r-97" value="&lt;p data-pm-slice=&quot;1 1 [&amp;quot;list&amp;quot;,{&amp;quot;spread&amp;quot;:false,&amp;quot;start&amp;quot;:1030,&amp;quot;end&amp;quot;:1070},&amp;quot;regular_list_item&amp;quot;,{&amp;quot;start&amp;quot;:1030,&amp;quot;end&amp;quot;:1060}]&quot;&gt;Заготовки&lt;/p&gt;" style="edgeLabel;html=1;align=center;verticalAlign=middle;resizable=0;points=[];fontSize=14;" vertex="1" connectable="0" parent="kAe2t5Nj_32575Pfu-4r-96">
          <mxGeometry x="-0.4824" relative="1" as="geometry">
            <mxPoint y="31" as="offset" />
          </mxGeometry>
        </mxCell>
        <mxCell id="kAe2t5Nj_32575Pfu-4r-98" value="" style="endArrow=classic;html=1;rounded=0;fontSize=14;" edge="1" parent="1">
          <mxGeometry width="50" height="50" relative="1" as="geometry">
            <mxPoint x="560" y="1650" as="sourcePoint" />
            <mxPoint x="560" y="1530" as="targetPoint" />
          </mxGeometry>
        </mxCell>
        <mxCell id="kAe2t5Nj_32575Pfu-4r-99" value="&lt;p data-pm-slice=&quot;1 1 [&amp;quot;list&amp;quot;,{&amp;quot;spread&amp;quot;:false,&amp;quot;start&amp;quot;:1030,&amp;quot;end&amp;quot;:1070},&amp;quot;regular_list_item&amp;quot;,{&amp;quot;start&amp;quot;:1030,&amp;quot;end&amp;quot;:1060}]&quot;&gt;Персонал&lt;/p&gt;" style="edgeLabel;html=1;align=center;verticalAlign=middle;resizable=0;points=[];fontSize=14;" vertex="1" connectable="0" parent="kAe2t5Nj_32575Pfu-4r-98">
          <mxGeometry x="-0.4824" relative="1" as="geometry">
            <mxPoint y="31" as="offset" />
          </mxGeometry>
        </mxCell>
        <mxCell id="kAe2t5Nj_32575Pfu-4r-100" value="" style="endArrow=classic;html=1;rounded=0;fontSize=14;" edge="1" parent="1">
          <mxGeometry width="50" height="50" relative="1" as="geometry">
            <mxPoint x="839.4100000000001" y="1770" as="sourcePoint" />
            <mxPoint x="839.4100000000001" y="1650" as="targetPoint" />
          </mxGeometry>
        </mxCell>
        <mxCell id="kAe2t5Nj_32575Pfu-4r-101" value="&lt;p data-pm-slice=&quot;1 1 [&amp;quot;list&amp;quot;,{&amp;quot;spread&amp;quot;:false,&amp;quot;start&amp;quot;:1030,&amp;quot;end&amp;quot;:1070},&amp;quot;regular_list_item&amp;quot;,{&amp;quot;start&amp;quot;:1030,&amp;quot;end&amp;quot;:1060}]&quot;&gt;Персонал&lt;/p&gt;" style="edgeLabel;html=1;align=center;verticalAlign=middle;resizable=0;points=[];fontSize=14;" vertex="1" connectable="0" parent="kAe2t5Nj_32575Pfu-4r-100">
          <mxGeometry x="-0.4824" relative="1" as="geometry">
            <mxPoint y="31" as="offset" />
          </mxGeometry>
        </mxCell>
        <mxCell id="kAe2t5Nj_32575Pfu-4r-104" value="А-0" style="text;html=1;align=center;verticalAlign=middle;whiteSpace=wrap;rounded=0;fontSize=14;" vertex="1" parent="1">
          <mxGeometry x="90" y="480" width="60" height="30" as="geometry" />
        </mxCell>
        <mxCell id="kAe2t5Nj_32575Pfu-4r-105" value="А-0" style="text;html=1;align=center;verticalAlign=middle;whiteSpace=wrap;rounded=0;fontSize=14;" vertex="1" parent="1">
          <mxGeometry x="90" y="1170" width="60" height="30" as="geometry" />
        </mxCell>
        <mxCell id="kAe2t5Nj_32575Pfu-4r-106" value="А2" style="text;html=1;align=center;verticalAlign=middle;whiteSpace=wrap;rounded=0;fontSize=14;" vertex="1" parent="1">
          <mxGeometry x="100" y="1690" width="60" height="30" as="geometry" />
        </mxCell>
      </root>
    </mxGraphModel>
  </diagram>
</mxfile>
